inDegrees=no
num_controls=7
num_derivatives=13
num_iterations=149
num_multipliers=7
num_parameters=0
num_slacks=7
num_states=26
objective=5.582129
objective_accelerations=0.606015
objective_balance=0.085633
objective_effort=0.484695
objective_height=4.303046
objective_ligament=0.102740
solver_duration=1658.152419
status=Solve_Succeeded
success=true
DataType=double
version=3
OpenSimVersion=4.4-2022-07-23-0e9fedc
endheader
time	/jointset/ground_pelvis/pelvis_tilt/value	/jointset/ground_pelvis/pelvis_tx/value	/jointset/ground_pelvis/pelvis_ty/value	/jointset/hip_l/hip_flexion_l/value	/jointset/hip_l/hip_adduction_l/value	/jointset/hip_l/hip_rotation_l/value	/jointset/back/lumbar_extension/value	/jointset/patellofemoral_l/patellar_flexion_l/value	/jointset/knee_l/knee_flexion_l/value	/jointset/knee_l/knee_adduction_l/value	/jointset/knee_l/knee_rotation_l/value	/jointset/ankle_l/ankle_angle_l/value	/jointset/subtalar_l/subtalar_angle_l/value	/jointset/ground_pelvis/pelvis_tilt/speed	/jointset/ground_pelvis/pelvis_tx/speed	/jointset/ground_pelvis/pelvis_ty/speed	/jointset/hip_l/hip_flexion_l/speed	/jointset/hip_l/hip_adduction_l/speed	/jointset/hip_l/hip_rotation_l/speed	/jointset/back/lumbar_extension/speed	/jointset/patellofemoral_l/patellar_flexion_l/speed	/jointset/knee_l/knee_flexion_l/speed	/jointset/knee_l/knee_adduction_l/speed	/jointset/knee_l/knee_rotation_l/speed	/jointset/ankle_l/ankle_angle_l/speed	/jointset/subtalar_l/subtalar_angle_l/speed	/forceset/tau_hip_flexion_l	/forceset/tau_hip_adduction_l	/forceset/tau_hip_rotation_l	/forceset/tau_knee_flexion_l	/forceset/tau_ankle_angle_l	/forceset/tau_subtalar_angle_l	/forceset/tau_lumbar_extension	lambda_cid13_p0	lambda_cid13_p1	lambda_cid13_p2	lambda_cid13_p3	lambda_cid13_p4	lambda_cid13_p5	lambda_cid14_p0	/jointset/ground_pelvis/pelvis_tilt/accel	/jointset/ground_pelvis/pelvis_tx/accel	/jointset/ground_pelvis/pelvis_ty/accel	/jointset/hip_l/hip_flexion_l/accel	/jointset/hip_l/hip_adduction_l/accel	/jointset/hip_l/hip_rotation_l/accel	/jointset/back/lumbar_extension/accel	/jointset/patellofemoral_l/patellar_flexion_l/accel	/jointset/knee_l/knee_flexion_l/accel	/jointset/knee_l/knee_adduction_l/accel	/jointset/knee_l/knee_rotation_l/accel	/jointset/ankle_l/ankle_angle_l/accel	/jointset/subtalar_l/subtalar_angle_l/accel	gamma_cid13_p0	gamma_cid13_p1	gamma_cid13_p2	gamma_cid13_p3	gamma_cid13_p4	gamma_cid13_p5	gamma_cid14_p0
0	-0.1601173148563469	0.05855603619705082	0.8979970799914779	0.3774920279260975	-0.2591614491282453	-0.2725542318569585	-0.0126506700172305	0.03223623128424607	0.03223623128433527	-0.1745328054181343	0.1741302083008695	-0.04231376238535053	-0.009290705340588807	0	0	0	0	0	0	0	0	0	0	0	0	0	0.148803334193798	-0.06586563631190752	-0.04931474044872272	-0.2881926327838917	0.2718202185639335	-0.04830653275968701	-0.09618760496251538	44.50233413874278	6.474241475146362	6.233555308630568	11.2133243331729	-589.5466460155906	-64.38211624606396	-39.06106589631982	-4.909514265574439	-2.571451269732604	-1.169470458864375	13.14097509349194	-1.10970063931931	2.701186062580881	-5.938777605658652	8.077768844229068	8.077768844224364	0.09781815287105028	0.06014750783007115	-0.1248757233608958	-1.167629995406956	-1.426380179053323e-08	1.045099313543447e-07	4.280155956335621e-08	-5.288124464226614e-09	9.057056988787992e-08	4.660759269107557e-08	-5.223820239300678e-09
0.01	-0.1603553027380032	0.05842915979486499	0.8979398582154893	0.3781335718007262	-0.2592169596840356	-0.272419672290761	-0.0129485265505344	0.03263096890699077	0.03263096890703285	-0.1745302544215111	0.1741307503576622	-0.04232152903639403	-0.009349443362774169	-0.04736172677034158	-0.02524419858011568	-0.01140135071824778	0.1276999137987753	-0.01105070243359673	0.0267858008969233	-0.05914904865077655	0.07861101034124797	0.07861101034123315	0.0005018874616959208	0.0001185443595215435	-0.001515995224055225	-0.01168640805896733	0.142985646134379	-0.07429279986493349	-0.04826897206101761	-0.2822973521789369	0.2632656706058729	-0.03616256671419212	-0.09127441690852453	42.21984440952333	1.849359635294039	6.685788912307427	11.44368947797667	-590.5596114919813	-73.2046307563225	-39.0724099600185	-4.614131128932399	-2.481242924752225	-1.118998592263174	12.49316534342846	-1.095059748870704	2.648356659644385	-5.839629797227802	7.702291042039128	7.702291042040112	0.02514643659157977	-0.01077423720740987	-0.1593614094801129	-1.159988039444449	-3.423792766222769e-08	1.101600253878626e-07	7.83300911319086e-08	8.907240561339086e-09	-2.724655878307664e-08	4.87819710790153e-08	-1.208813973653013e-08
0.02	-0.1610598337364967	0.05805377365236503	0.8977699166895282	0.3800338479774844	-0.2593814382048576	-0.2720210388043272	-0.01382520583081909	0.03380172141570677	0.0338017214157196	-0.174522930071322	0.1741327814306655	-0.04234333563718469	-0.009523213831210462	-0.09330862338781967	-0.04970194806282632	-0.02254394999446554	0.2517464604119154	-0.02179359300685174	0.05281478404972203	-0.1157645493994974	0.1552029772011531	0.1552029772011488	0.0009546706742829593	0.0002978032301847531	-0.002807989950172401	-0.02300648925005571	0.13716795807491	-0.08271996341795679	-0.04722320367289015	-0.2764020715740321	0.2547111226477942	-0.02401860066870501	-0.08636122885461134	40.00895991399998	-2.787102276097798	7.138777647855335	11.61520600075565	-590.4352577659499	-81.93494824457862	-39.10591564119302	-4.62654823500427	-2.414161450249282	-1.117720170458367	12.41030165636435	-1.048138267251438	2.549822513756186	-5.43206802524885	7.673960147960081	7.673960147960448	0.08799730304825823	0.07229041005819835	-0.08007562377074533	-1.094364621831029	-5.421205353392214e-08	1.158101194213806e-07	1.13858622700461e-07	2.310260558690479e-08	-1.450636874540332e-07	5.095634946695503e-08	-1.895245923375959e-08
0.03	-0.1622170694183224	0.05743767270795721	0.8974895973703098	0.3831569436598955	-0.2596515149900055	-0.2713658550778354	-0.01525528371572969	0.03572842103809023	0.03572842103811181	-0.1745109460778352	0.1741368552573921	-0.04237697443199081	-0.00980808123037002	-0.1378959238127484	-0.07339167410058067	-0.03349560690771384	0.3722695592568875	-0.03215202520611766	0.07810160881384888	-0.1698580951931601	0.2297958386054438	0.2297958386054163	0.001448383953773349	0.0005162857301659791	-0.003889935596627648	-0.03389014751300406	0.1306529084236904	-0.07730026746022341	-0.04627292131443966	-0.270380210718799	0.2492330553435768	-0.02577396228356245	-0.08102655526859608	38.23554251966973	-1.821144855402347	7.1068920400327	11.85274609094794	-590.1588786727244	-78.98381850748703	-39.1605583476798	-4.338439589700869	-2.327388488864834	-1.080271899256641	11.78283656023934	-1.019250299906969	2.500043541676249	-5.339058001776922	7.300786653476339	7.30078665347328	0.03102281183344754	-0.003488958314229926	-0.1177812766224386	-1.073870754844938	-6.828040844269622e-08	1.269012636774117e-07	1.323928948279027e-07	3.50909337153603e-08	-2.327540225312226e-07	5.729430250602999e-08	-2.20949757345672e-08
0.04	-0.1638129018329996	0.05658847244151355	0.8971004847924615	0.3874671748431658	-0.260023087017873	-0.2704614168869241	-0.01721450908762671	0.03839081677786443	0.03839081677787862	-0.174493832057288	0.1741430906834905	-0.04242053813156573	-0.01019948607742285	-0.1810279699765976	-0.0963218124699963	-0.04430260172046435	0.4891735605689421	-0.04209264155110924	0.1026656769354092	-0.2215940468012033	0.3023422006822433	0.3023422006822059	0.001980676090607196	0.0007301230988243248	-0.0047929709046375	-0.04431397882868672	0.1241378587725148	-0.07188057150251267	-0.04532263895573021	-0.2643583498635963	0.2437549880393346	-0.02752932389845132	-0.07569188168254135	36.5270816964393	-0.8648042714417021	7.074535135908688	12.03099786163244	-588.8647033894855	-75.94527904091201	-39.23517967672227	-4.33549738279078	-2.26224391657936	-1.088787750358792	11.68648214978037	-0.9645750963968587	2.405271185243118	-4.960549188126249	7.264660282461427	7.264660282464455	0.09571307451630727	0.07136138379338405	-0.0442935560792347	-1.002399232377601	-8.222699487800803e-08	1.381045945359689e-07	1.505767698534658e-07	4.703375592841149e-08	-3.198231866064788e-07	6.371810244512835e-08	-2.516075402926302e-08
0.05	-0.1658333411403646	0.05551376703883061	0.8966037891342814	0.3929292774689401	-0.2604918282774408	-0.2693149230703155	-0.01967889766103033	0.04176884950094316	0.04176884950097348	-0.1744710009849481	0.1741515186171744	-0.04247210110368985	-0.01069265824455297	-0.2228236669752103	-0.1184891363168043	-0.05502821393086309	0.6026494504531603	-0.05158212471019933	0.1265182807112342	-0.2708996636911438	0.3729185874703363	0.3729185874702667	0.002581570840888437	0.0009462375309123772	-0.005491442172955928	-0.05424083431534939	0.1172151976804293	-0.07004052617665812	-0.04432550595356584	-0.258728646048517	0.238080233490591	-0.0256715618837152	-0.07009245117444921	34.90057211597599	-1.392877633542884	7.165619879769511	12.04456912812209	-587.5888822929373	-75.90321750548129	-39.32828923023482	-4.066178987541096	-2.174447347199966	-1.0632652268349	11.08850215508611	-0.9301276880191685	2.358012296761813	-4.857967314686296	6.902269463626584	6.902269463620105	0.04171422638698349	-0.004667858960897883	-0.07840040227459893	-0.9759237759222146	-9.320719872031224e-08	1.520851914421207e-07	1.628161896455908e-07	5.766376549423564e-08	-3.80003532706154e-07	7.009367946864307e-08	-2.673165516425756e-08
0.06	-0.1682646520434582	0.05422129425199269	0.8960000738999082	0.3995082109430871	-0.2610532629210675	-0.2679333517513437	-0.02262482227836636	0.04584227440921172	0.04584227440922058	-0.174442273654859	0.1741618268288214	-0.04252980408650675	-0.01128271798037201	-0.2632022891399321	-0.1398752893009919	-0.06570651695907628	0.7125397302311938	-0.06063131836344799	0.1496811774074603	-0.3179012555917057	0.4414206377241567	0.4414206377240363	0.003159927635266434	0.001106178687876265	-0.006020973043909692	-0.06369149256648256	0.1102925365882296	-0.06820048085087513	-0.04332837295123869	-0.2530989422335973	0.2324054789417508	-0.02381379986907276	-0.06449302066637189	33.33038470615248	-1.928275724855765	7.254976091450132	12.00396240167029	-585.4231880813967	-75.77958768332928	-39.43830357956492	-4.052082416014896	-2.106009744053209	-1.079325913921655	10.96936012854295	-0.8765171952288392	2.267329769323573	-4.499744190251799	6.849792975606513	6.8497929756058	0.09120548333509232	0.06012672876830185	-0.01050547660397155	-0.9071597852713938	-1.040625022429109e-07	1.66182725866066e-07	1.748053165857816e-07	6.823849873807126e-08	-4.390517180489625e-07	7.646722605360689e-08	-2.823961410305416e-08
0.07000000000000001	-0.171093219246689	0.05271886827802703	0.8952896114431858	0.4071691004564871	-0.2617028827451713	-0.2663236754038637	-0.0260288259227007	0.05059091484566902	0.05059091484566855	-0.1744076915652004	0.1741736955933084	-0.04259175241404628	-0.01196475493662688	-0.3022767078637997	-0.1604753357214566	-0.0763895081696286	0.8190437557397469	-0.06921626061904053	0.1721338512898012	-0.362527050308906	0.5079660131251157	0.5079660131250073	0.003745662739725757	0.001264167878361947	-0.006336945143791527	-0.07263294208259399	0.1030264192206848	-0.06559936980020684	-0.04235109585659344	-0.2479014248790998	0.227590869151132	-0.02276761525503614	-0.05866293084856545	31.99607784003375	-2.165930855204177	7.312196329078128	11.80180721042024	-583.4063544339718	-74.99210153950376	-39.56337637309095	-3.799961837165037	-2.016802844072065	-1.063404318254316	10.4017457382202	-0.8380425723109719	2.216175187534115	-4.388133670804723	6.505700021644038	6.505700021646566	0.04067088759935349	-0.006899378306396356	-0.03738590829093556	-0.8752390386426175	-1.100825304060741e-07	1.730638478907208e-07	1.809486990047456e-07	7.552163813926601e-08	-4.722301481847514e-07	7.876941806701937e-08	-2.869575502432193e-08
